<?xml version="1.0" encoding="UTF-8"?>
<svg width="16px" height="16px" viewBox="0 0 16 16" version="1.1" xmlns="http://www.w3.org/2000/svg" xmlns:xlink="http://www.w3.org/1999/xlink">
    <!-- Generator: Sketch 50.2 (55047) - http://www.bohemiancoding.com/sketch -->
    <title>hamburger-menu_icon</title>
    <desc>Created with Sketch.</desc>
    <defs></defs>
    <g id="Page-1" stroke="none" stroke-width="1" fill="none" fill-rule="evenodd">
        <g id="hamburger-menu_icon" fill="#000000" fill-rule="nonzero">
            <path d="M13.5529412,6 L1.50588235,6 C0.677647059,6 0,6.9 0,8 C0,9.1 0.677647059,10 1.50588235,10 L13.5529412,10 C14.3811765,10 15.0588235,9.1 15.0588235,8 C15.0588235,6.9 14.3811765,6 13.5529412,6 Z" id="Shape"></path>
            <path d="M1.88235294,4 L13.1764706,4 C14.2117647,4 15.0588235,3.1 15.0588235,2 C15.0588235,0.9 14.2117647,0 13.1764706,0 L1.88235294,0 C0.847058824,0 0,0.9 0,2 C0,3.1 0.847058824,4 1.88235294,4 Z" id="Shape"></path>
            <path d="M13.1764706,12 L1.88235294,12 C0.847058824,12 0,12.9 0,14 C0,15.1 0.847058824,16 1.88235294,16 L13.1764706,16 C14.2117647,16 15.0588235,15.1 15.0588235,14 C15.0588235,12.9 14.2117647,12 13.1764706,12 Z" id="Shape"></path>
        </g>
    </g>
</svg>