<?xml version="1.0" encoding="UTF-8"?>
<svg width="28px" height="28px" viewBox="0 0 28 28" version="1.1" xmlns="http://www.w3.org/2000/svg" xmlns:xlink="http://www.w3.org/1999/xlink">
    <!-- Generator: Sketch 50.2 (55047) - http://www.bohemiancoding.com/sketch -->
    <title>linkedin_logo</title>
    <desc>Created with Sketch.</desc>
    <defs></defs>
    <g id="Page-1" stroke="none" stroke-width="1" fill="none" fill-rule="evenodd">
        <g id="linkedin_logo" fill="#FFFFFF" fill-rule="nonzero">
            <path d="M5.88307542,27.8231512 L5.88307542,9.52433895 L0.227370038,9.52433895 L0.227370038,27.8231512 L5.88307542,27.8231512 Z M5.88307542,3.03821455 C5.84938823,1.40065996 4.75801564,0.153846154 2.98505434,0.153846154 C1.21163158,0.153846154 0.0528846154,1.40065996 0.0528846154,3.03821455 C0.0528846154,4.64020234 1.17794439,5.92307692 2.9172185,5.92307692 L2.95090569,5.92307692 C4.75801564,5.92307692 5.88307542,4.64020234 5.88307542,3.03821455 Z M15.1100418,27.8231517 L15.1100418,17.3973729 C15.1100418,16.8394014 15.1503704,16.28143 15.3144472,15.8836682 C15.7630341,14.7682778 16.7839561,13.6136637 18.498199,13.6136637 C20.7438958,13.6136637 22.152278,14.8881587 22.152278,17.3973727 L22.152278,27.8231516 L27.8461538,27.8231517 L27.8461538,17.1183872 C27.8461538,11.3839878 24.7850453,8.71566901 20.7019099,8.71566901 C17.3540813,8.71566901 15.8845724,10.5873593 15.0686083,11.861302 L15.1094893,9.41391226 L9.425462,9.41391226 C9.50722415,11.1657215 9.425462,27.8231517 9.425462,27.8231517 L15.1100418,27.8231517 Z" id="Shape"></path>
        </g>
    </g>
</svg>