<?xml version="1.0" encoding="UTF-8"?>
<svg width="16px" height="16px" viewBox="0 0 16 16" version="1.1" xmlns="http://www.w3.org/2000/svg" xmlns:xlink="http://www.w3.org/1999/xlink">
    <!-- Generator: Sketch 50.2 (55047) - http://www.bohemiancoding.com/sketch -->
    <title>close_icon</title>
    <desc>Created with Sketch.</desc>
    <defs></defs>
    <g id="Page-1" stroke="none" stroke-width="1" fill="none" fill-rule="evenodd">
        <g id="close_icon" fill="#000000" fill-rule="nonzero">
            <path d="M11.2,8 L15.3142857,3.88571429 C16.2285714,2.97142857 16.2285714,1.6 15.3142857,0.685714286 C14.4,-0.228571429 13.0285714,-0.228571429 12.1142857,0.685714286 L8,4.8 L3.88571429,0.685714286 C2.97142857,-0.228571429 1.6,-0.228571429 0.685714286,0.685714286 C-0.228571429,1.6 -0.228571429,2.97142857 0.685714286,3.88571429 L4.8,8 L0.685714286,12.1142857 C-0.228571429,13.0285714 -0.228571429,14.4 0.685714286,15.3142857 C1.14285714,15.7714286 1.71428571,16 2.28571429,16 C2.85714286,16 3.42857143,15.7714286 3.88571429,15.3142857 L8,11.2 L12.1142857,15.3142857 C12.5714286,15.7714286 13.1428571,16 13.7142857,16 C14.2857143,16 14.8571429,15.7714286 15.3142857,15.3142857 C16.2285714,14.4 16.2285714,13.0285714 15.3142857,12.1142857 L11.2,8 Z" id="exit"></path>
        </g>
    </g>
</svg>