<?xml version="1.0" encoding="UTF-8"?>
<svg width="146px" height="18px" viewBox="0 0 146 18" version="1.1" xmlns="http://www.w3.org/2000/svg" xmlns:xlink="http://www.w3.org/1999/xlink">
    <!-- Generator: Sketch 50.2 (55047) - http://www.bohemiancoding.com/sketch -->
    <title>logo</title>
    <desc>Created with Sketch.</desc>
    <defs></defs>
    <g id="Symbols" stroke="none" stroke-width="1" fill="none" fill-rule="evenodd">
        <g id="Nav-/-Primary-desktop" transform="translate(-43.000000, -18.000000)">
            <g id="Group">
                <g id="logo" transform="translate(40.000000, 7.000000)">
                    <path d="M78.601083,16.9119114 L81.3357401,16.9119114 L81.9584838,18.1606648 C82.7346609,17.699813 83.5198516,17.3430299 84.3140794,17.0903047 C85.1083072,16.8375795 86.0108253,16.7112188 87.0216606,16.7112188 C87.888091,16.7112188 88.6326684,16.8673115 89.2554152,17.1795014 C89.878162,17.4916913 90.3610091,17.9079383 90.7039711,18.4282548 C91.4620977,17.9674031 92.3240024,17.566022 93.2897112,17.2240997 C94.25542,16.8821774 95.180501,16.7112188 96.0649819,16.7112188 C99.1155387,16.7112188 100.640794,18.1457844 100.640794,21.0149584 L100.640794,28.8642659 L97.2833935,28.8642659 L97.2833935,21.2379501 C97.2833935,20.5987041 97.0667892,20.1006943 96.633574,19.7439058 C96.2003588,19.3871173 95.6137221,19.2087258 94.8736462,19.2087258 C94.2599247,19.2087258 93.6236495,19.3053545 92.9648014,19.498615 C92.3059534,19.6918754 91.6877285,19.9520298 91.1101083,20.2790859 C91.2364627,20.5764096 91.299639,20.9183268 91.299639,21.3048476 L91.299639,28.8642659 L87.9422383,28.8642659 L87.9422383,21.2379501 C87.9422383,20.5987041 87.7256339,20.1006943 87.2924188,19.7439058 C86.8592036,19.3871173 86.2725669,19.2087258 85.532491,19.2087258 C84.8646176,19.2087258 84.2509053,19.2904886 83.6913357,19.4540166 C83.1317662,19.6175447 82.5541546,19.8628331 81.9584838,20.1898892 L81.9584838,28.8642659 L78.601083,28.8642659 L78.601083,16.9119114 Z M104.404332,15.016482 C104.259927,15.016482 104.138087,14.9793171 104.038809,14.9049861 C103.93953,14.8306552 103.889892,14.7340264 103.889892,14.615097 L103.889892,12.5858726 C103.889892,12.4520769 103.935018,12.3442987 104.025271,12.2625346 C104.115524,12.1807706 104.241876,12.1398892 104.404332,12.1398892 L106.949458,12.1398892 C107.111914,12.1398892 107.233754,12.1807706 107.314982,12.2625346 C107.39621,12.3442987 107.436823,12.4520769 107.436823,12.5858726 L107.436823,14.615097 C107.436823,14.8826883 107.27437,15.016482 106.949458,15.016482 L104.404332,15.016482 Z M103.971119,16.9119114 L107.32852,16.9119114 L107.32852,28.8642659 L103.971119,28.8642659 L103.971119,16.9119114 Z M116.046931,28.8642659 C114.440425,28.8642659 113.289715,28.5520807 112.594765,27.9277008 C111.899816,27.303321 111.570397,26.2478375 111.606498,24.7612188 L111.714801,19.1418283 L109.440433,19.1418283 L109.440433,17.3578947 L111.823105,16.9119114 L112.310469,13.567036 L114.936823,13.567036 L114.936823,16.9119114 L118.619134,16.9119114 L118.619134,19.1418283 L114.936823,19.1418283 L114.936823,24.7389197 C114.936823,25.4376305 115.094764,25.9244908 115.41065,26.1995152 C115.726536,26.4745397 116.137182,26.6343488 116.642599,26.6789474 L118.456679,26.8350416 L118.456679,28.8642659 L116.046931,28.8642659 Z M127.012635,28.9757618 C125.406129,28.9757618 124.147116,28.7936537 123.23556,28.4294321 C122.324003,28.0652106 121.665164,27.448273 121.259025,26.5786011 C120.852886,25.7089292 120.649819,24.4787706 120.649819,22.8880886 C120.649819,21.2676743 120.843861,20.0189333 121.231949,19.1418283 C121.620038,18.2647232 122.260826,17.6477857 123.154332,17.2909972 C124.047838,16.9342087 125.306851,16.7558172 126.931408,16.7558172 C128.357408,16.7558172 129.485555,16.8747449 130.315884,17.1126039 C131.146214,17.3504629 131.750901,17.7629934 132.129964,18.3502078 C132.509027,18.9374221 132.698556,19.7587667 132.698556,20.8142659 C132.698556,21.9143638 132.314986,22.7022599 131.547834,23.1779778 C130.780682,23.6536958 129.666072,23.8915512 128.203971,23.8915512 L123.953069,23.8915512 C123.98917,24.664593 124.115522,25.262948 124.33213,25.6866343 C124.548738,26.1103207 124.932308,26.4187894 125.482852,26.6120499 C126.033396,26.8053103 126.832125,26.9019391 127.879061,26.9019391 L132.265343,26.9019391 L132.265343,28.5297784 C131.290609,28.6784403 130.419679,28.789935 129.652527,28.8642659 C128.885375,28.9385969 128.00542,28.9757618 127.012635,28.9757618 Z M127.879061,22.2191136 C128.528884,22.2191136 128.998194,22.1150518 129.287004,21.9069252 C129.575814,21.6987986 129.720217,21.3345825 129.720217,20.8142659 C129.720217,20.0412242 129.512637,19.5060495 129.097473,19.2087258 C128.682308,18.911402 127.960294,18.7627424 126.931408,18.7627424 C126.155231,18.7627424 125.555056,18.8630876 125.130866,19.0637812 C124.706677,19.2644747 124.39982,19.6101084 124.210289,20.1006925 C124.020757,20.5912767 123.925993,21.29741 123.925993,22.2191136 L127.879061,22.2191136 Z M140.442238,28.9980609 C138.673276,28.9980609 137.364625,28.5260666 136.516245,27.5820637 C135.667866,26.6380608 135.243682,25.110583 135.243682,22.9995845 C135.243682,21.4832334 135.415161,20.2753738 135.758123,19.3759695 C136.101085,18.4765652 136.669671,17.8150298 137.463899,17.3913435 C138.258127,16.9676572 139.341148,16.7558172 140.712996,16.7558172 C141.994591,16.7558172 143.312268,16.9565077 144.666065,17.3578947 L144.666065,11.85 L148.023466,11.85 L148.023466,28.8642659 L145.234657,28.8642659 L144.666065,27.7047091 C144.196749,28.0466314 143.555961,28.3476672 142.743682,28.6078255 C141.931404,28.8679838 141.164264,28.9980609 140.442238,28.9980609 Z M141.552347,26.768144 C142.527081,26.768144 143.564976,26.5079897 144.666065,25.9876731 L144.666065,19.3425208 C144.088445,19.1789927 143.583035,19.052632 143.149819,18.9634349 C142.716604,18.8742378 142.247295,18.8296399 141.741877,18.8296399 C140.947649,18.8296399 140.324912,18.9448511 139.873646,19.175277 C139.42238,19.4057029 139.092961,19.8108004 138.885379,20.3905817 C138.677797,20.970363 138.574007,21.795424 138.574007,22.8657895 C138.574007,23.8766902 138.673284,24.6608698 138.871841,25.2183518 C139.070398,25.7758338 139.381767,26.1734983 139.805957,26.4113573 C140.230147,26.6492163 140.812271,26.768144 141.552347,26.768144 Z" id="mited" fill="#A4A4A4"></path>
                    <path d="M7.86980442,28.8642659 C6.40545786,28.8642659 5.30275,28.5780961 4.56164778,28.0057479 C3.82054555,27.4333997 3.45,26.4931275 3.45,25.184903 L3.45,12.4074792 L6.7447633,12.4074792 L6.7447633,24.7389197 C6.7447633,25.3484333 6.91887506,25.7721133 7.26710382,26.0099723 C7.61533258,26.2478313 8.09302383,26.366759 8.70019192,26.366759 L15.2629318,26.366759 L15.2629318,28.8642659 L7.86980442,28.8642659 Z M21.7453116,28.9980609 C20.4059703,28.9980609 19.3746929,28.6858757 18.6514485,28.0614958 C17.9282042,27.437116 17.5665875,26.5377252 17.5665875,25.3632964 L17.5665875,16.9119114 L20.8881375,16.9119114 L20.8881375,24.5605263 C20.8881375,25.3038357 21.0890356,25.8204279 21.4908381,26.1103186 C21.8926405,26.4002092 22.5042639,26.5451524 23.3257266,26.5451524 C24.5757785,26.5451524 25.7365236,26.2255341 26.8079967,25.5862881 L26.8079967,16.9119114 L30.1295467,16.9119114 L30.1295467,28.8642659 L27.4240907,28.8642659 L26.8079967,27.6155125 C25.0936398,28.5372161 23.4060949,28.9980609 21.7453116,28.9980609 Z M37.6298209,28.9980609 C36.2904795,28.9980609 35.2592021,28.6858757 34.5359578,28.0614958 C33.8127134,27.437116 33.4510967,26.5377252 33.4510967,25.3632964 L33.4510967,16.9119114 L36.7726467,16.9119114 L36.7726467,24.5605263 C36.7726467,25.3038357 36.9735449,25.8204279 37.3753473,26.1103186 C37.7771497,26.4002092 38.3887731,26.5451524 39.2102358,26.5451524 C40.4602877,26.5451524 41.6210328,26.2255341 42.6925059,25.5862881 L42.6925059,16.9119114 L46.0140559,16.9119114 L46.0140559,28.8642659 L43.3085999,28.8642659 L42.6925059,27.6155125 C40.978149,28.5372161 39.2906042,28.9980609 37.6298209,28.9980609 Z M48.0766313,16.9119114 L51.4785414,16.9119114 L55.0679583,26.2998615 L58.7377353,16.9119114 L62.1128587,16.9119114 L56.8894535,28.8642659 L53.085743,28.8642659 L48.0766313,16.9119114 Z M68.4613051,28.9088643 C67.0148164,28.9088643 65.9433594,28.6003955 65.2469018,27.9834488 C64.5504443,27.366502 64.2022208,26.3741989 64.2022208,25.0065097 L64.2022208,11.85 L67.5237708,11.85 L67.5237708,24.6274238 C67.5237708,25.3855994 67.6577029,25.9170576 67.9255712,26.2218144 C68.1934395,26.5265712 68.6220223,26.7086793 69.2113325,26.768144 L70.4167337,26.9019391 L70.4167337,28.9088643 L68.4613051,28.9088643 Z M72.8275361,15.016482 C72.684673,15.016482 72.5641341,14.9793171 72.4659157,14.9049861 C72.3676974,14.8306552 72.3185889,14.7340264 72.3185889,14.615097 L72.3185889,12.5858726 C72.3185889,12.4520769 72.363233,12.3442987 72.4525224,12.2625346 C72.5418118,12.1807706 72.6668151,12.1398892 72.8275361,12.1398892 L75.3454853,12.1398892 C75.5062063,12.1398892 75.6267452,12.1807706 75.7071056,12.2625346 C75.7874661,12.3442987 75.8276458,12.4520769 75.8276458,12.5858726 L75.8276458,14.615097 C75.8276458,14.8826883 75.6669272,15.016482 75.3454853,15.016482 L72.8275361,15.016482 Z M72.398949,16.9119114 L75.720499,16.9119114 L75.720499,28.8642659 L72.398949,28.8642659 L72.398949,16.9119114 Z" id="Luuvli" fill="#0F7173"></path>
                </g>
            </g>
        </g>
    </g>
</svg>